<?xml version="1.0" encoding="UTF-8"?>
<!DOCTYPE svg PUBLIC "-//W3C//DTD SVG 1.1//EN" "http://www.w3.org/Graphics/SVG/1.1/DTD/svg11.dtd">
<svg xmlns="http://www.w3.org/2000/svg" version="1.1" width="31.88" height="31.88" style="shape-rendering:geometricPrecision; text-rendering:geometricPrecision; image-rendering:optimizeQuality; fill-rule:evenodd; clip-rule:evenodd"
    xmlns:xlink="http://www.w3.org/1999/xlink">
    <linearGradient id="grad" x1="0%" y1="0%" x2="100%" y2="0%">
        <stop offset="0%" style="stop-color:#1db9ff; stop-opacity:1" />
        <stop offset="40%" style="stop-color:#5271ff; stop-opacity:1" />
        <stop offset="100%" style="stop-color:#a32aff; stop-opacity:1" />
    </linearGradient>


    <g filter="url(#inset-shadow)">
        <path fill="url(#grad)" d="M 1992.5,486.5 C 1993.5,486.5 1994.5,486.5 1995.5,486.5C 1995.5,843.167 1995.5,1199.83 1995.5,1556.5C 1994.45,1556.65 1993.45,1556.48 1992.5,1556C 1882.5,1475.33 1772.5,1394.67 1662.5,1314C 1661.62,1287.9 1660.96,1261.73 1660.5,1235.5C 1668.83,1235.5 1677.17,1235.5 1685.5,1235.5C 1685.17,1254.74 1685.51,1273.91 1686.5,1293C 1763.81,1333.99 1840.98,1375.15 1918,1416.5C 1918.83,1155.17 1918.67,893.833 1917.5,632.5C 1840.31,673.26 1763.31,714.26 1686.5,755.5C 1685.5,781.491 1685.17,807.491 1685.5,833.5C 1676.83,833.5 1668.17,833.5 1659.5,833.5C 1659.17,799.16 1659.5,764.827 1660.5,730.5C 1771.49,649.496 1882.16,568.163 1992.5,486.5 Z M 1014.5,876.5 C 1015.75,876.577 1016.58,877.244 1017,878.5C 1060.79,980.416 1104.29,1082.42 1147.5,1184.5C 1126.16,1184.83 1104.82,1184.5 1083.5,1183.5C 1060.92,1130.69 1038.09,1078.02 1015,1025.5C 992.333,1078.17 969.667,1130.83 947,1183.5C 925.575,1184.49 904.075,1184.83 882.5,1184.5C 925.946,1081.61 969.946,978.941 1014.5,876.5 Z M 50.5,878.5 C 87.1863,878.09 123.853,878.59 160.5,880C 218.429,888.947 259.263,920.114 283,973.5C 304.622,1034.38 294.288,1089.05 252,1137.5C 226.859,1163.15 196.359,1178.32 160.5,1183C 123.853,1184.41 87.1863,1184.91 50.5,1184.5C 50.5,1082.5 50.5,980.5 50.5,878.5 Z M 110.5,939.5 C 127.209,939.092 143.876,939.592 160.5,941C 196.72,950.22 220.22,972.72 231,1008.5C 239.189,1049.61 226.689,1082.78 193.5,1108C 183.329,1114.58 172.329,1119.25 160.5,1122C 143.876,1123.41 127.209,1123.91 110.5,1123.5C 110.5,1062.17 110.5,1000.83 110.5,939.5 Z M 293.5,878.5 C 316.843,878.167 340.176,878.5 363.5,879.5C 381.77,910.43 400.436,941.097 419.5,971.5C 438.167,940.833 456.833,910.167 475.5,879.5C 499.16,878.334 522.826,878.167 546.5,879C 514.459,932.25 482.292,985.416 450,1038.5C 449.5,1087.17 449.333,1135.83 449.5,1184.5C 429.5,1184.5 409.5,1184.5 389.5,1184.5C 389.667,1136.17 389.5,1087.83 389,1039.5C 357.667,987.5 326.333,935.5 295,883.5C 293.991,881.975 293.491,880.308 293.5,878.5 Z M 779.5,878.5 C 799.5,878.5 819.5,878.5 839.5,878.5C 839.833,981.502 839.5,1084.5 838.5,1187.5C 775.833,1130.5 713.167,1073.5 650.5,1016.5C 649.5,1072.5 649.167,1128.5 649.5,1184.5C 629.5,1184.5 609.5,1184.5 589.5,1184.5C 589.333,1082.83 589.5,981.166 590,879.5C 652.701,937.203 715.701,994.536 779,1051.5C 779.5,993.834 779.667,936.168 779.5,878.5 Z M 1191.5,879.5 C 1239.47,946.319 1287.3,1013.32 1335,1080.5C 1382.83,1013.5 1430.67,946.5 1478.5,879.5C 1479.5,981.164 1479.83,1082.83 1479.5,1184.5C 1459.5,1184.5 1439.5,1184.5 1419.5,1184.5C 1419.67,1145.5 1419.5,1106.5 1419,1067.5C 1391.36,1106.64 1363.53,1145.64 1335.5,1184.5C 1307.43,1146.05 1279.6,1107.38 1252,1068.5C 1251.5,1107.17 1251.33,1145.83 1251.5,1184.5C 1231.5,1184.5 1211.5,1184.5 1191.5,1184.5C 1191.5,1082.83 1191.5,981.167 1191.5,879.5 Z M 1668.5,878.5 C 1736.7,879.331 1785.53,910.331 1815,971.5C 1836.73,1029.04 1828.73,1082.04 1791,1130.5C 1748.61,1176.41 1696.77,1192.57 1635.5,1179C 1570.86,1158.89 1533.36,1115.39 1523,1048.5C 1518.69,978.932 1546.86,927.432 1607.5,894C 1626.96,884.885 1647.29,879.719 1668.5,878.5 Z M 1661.5,939.5 C 1707.33,936.485 1740.16,955.485 1760,996.5C 1773.56,1035.4 1766.06,1069.56 1737.5,1099C 1707.61,1124.32 1674.27,1129.98 1637.5,1116C 1592.72,1092.26 1575.55,1055.43 1586,1005.5C 1594.75,977.505 1612.58,957.672 1639.5,946C 1646.81,943.282 1654.14,941.115 1661.5,939.5 Z"/>
    </g>

</svg>
