<?xml version="1.0" encoding="UTF-8"?>
<!DOCTYPE svg PUBLIC "-//W3C//DTD SVG 1.1//EN" "http://www.w3.org/Graphics/SVG/1.1/DTD/svg11.dtd">
<svg xmlns="http://www.w3.org/2000/svg" version="1.1" width="5000px" height="5000px" style="shape-rendering:geometricPrecision; text-rendering:geometricPrecision; image-rendering:optimizeQuality; fill-rule:evenodd; clip-rule:evenodd"
    xmlns:xlink="http://www.w3.org/1999/xlink"  viewBox="0 0 2991 556">
    <linearGradient id="grad" x1="0%" y1="0%" x2="100%" y2="0%">
        <stop offset="0%" style="stop-color:#1db9ff; stop-opacity:1" />
        <stop offset="40%" style="stop-color:#5271ff; stop-opacity:1" />
        <stop offset="100%" style="stop-color:#a32aff; stop-opacity:1" />
    </linearGradient>


    <g filter="url(#inset-shadow)">
        <path fill="url(#grad)" d="
                                   M 1992.5,486.5 C 1993.5,486.5 1994.5,486.5 1995.5,486.5C 1995.5,843.167 1995.5,1199.83 1995.5,1556.5C 1994.45,1556.65 1993.45,1556.48 1992.5,1556C 1882.5,1475.33 1772.5,1394.67 1662.5,1314C 1661.62,1287.9 1660.96,1261.73 1660.5,1235.5C 1668.83,1235.5 1677.17,1235.5 1685.5,1235.5C 1685.17,1254.74 1685.51,1273.91 1686.5,1293C 1763.81,1333.99 1840.98,1375.15 1918,1416.5C 1918.83,1155.17 1918.67,893.833 1917.5,632.5C 1840.31,673.26 1763.31,714.26 1686.5,755.5C 1685.5,781.491 1685.17,807.491 1685.5,833.5C 1676.83,833.5 1668.17,833.5 1659.5,833.5C 1659.17,799.16 1659.5,764.827 1660.5,730.5C 1771.49,649.496 1882.16,568.163 1992.5,486.5 Z
                                   M 1668.5,878.5 C 1736.7,879.331 1785.53,910.331 1815,971.5C 1836.73,1029.04 1828.73,1082.04 1791,1130.5C 1748.61,1176.41 1696.77,1192.57 1635.5,1179C 1570.86,1158.89 1533.36,1115.39 1523,1048.5C 1518.69,978.932 1546.86,927.432 1607.5,894C 1626.96,884.885 1647.29,879.719 1668.5,878.5 Z 
                                   M 1661.5,939.5 C 1707.33,936.485 1740.16,955.485 1760,996.5C 1773.56,1035.4 1766.06,1069.56 1737.5,1099C 1707.61,1124.32 1674.27,1129.98 1637.5,1116C 1592.72,1092.26 1575.55,1055.43 1586,1005.5C 1594.75,977.505 1612.58,957.672 1639.5,946C 1646.81,943.282 1654.14,941.115 1661.5,939.5 Z
                                   "/>
    </g>

</svg>
